<mxfile host="app.diagrams.net" modified="2023-07-29T13:36:49.052Z" agent="Mozilla/5.0 (Macintosh; Intel Mac OS X 10_15_7) AppleWebKit/537.36 (KHTML, like Gecko) Chrome/110.0.0.0 Safari/537.36" etag="8i2XYWdcw7yGPLUGBSPc" version="21.6.5" type="device">
  <diagram name="Page-1" id="693qGJmzZ3j7GSNhWUk-">
    <mxGraphModel dx="2385" dy="2647" grid="1" gridSize="10" guides="1" tooltips="1" connect="1" arrows="1" fold="1" page="1" pageScale="1" pageWidth="827" pageHeight="1169" math="0" shadow="0">
      <root>
        <mxCell id="0" />
        <mxCell id="1" parent="0" />
        <mxCell id="jcmodlkswDEMBjQgmv_7-1" value="AWS Cloud" style="points=[[0,0],[0.25,0],[0.5,0],[0.75,0],[1,0],[1,0.25],[1,0.5],[1,0.75],[1,1],[0.75,1],[0.5,1],[0.25,1],[0,1],[0,0.75],[0,0.5],[0,0.25]];outlineConnect=0;gradientColor=none;html=1;whiteSpace=wrap;fontSize=12;fontStyle=0;container=1;pointerEvents=0;collapsible=0;recursiveResize=0;shape=mxgraph.aws4.group;grIcon=mxgraph.aws4.group_aws_cloud_alt;strokeColor=#232F3E;fillColor=none;verticalAlign=top;align=left;spacingLeft=30;fontColor=#232F3E;dashed=0;" parent="1" vertex="1">
          <mxGeometry x="40" y="-60" width="1400" height="1140" as="geometry" />
        </mxCell>
        <mxCell id="jcmodlkswDEMBjQgmv_7-4" value="Region" style="points=[[0,0],[0.25,0],[0.5,0],[0.75,0],[1,0],[1,0.25],[1,0.5],[1,0.75],[1,1],[0.75,1],[0.5,1],[0.25,1],[0,1],[0,0.75],[0,0.5],[0,0.25]];outlineConnect=0;gradientColor=none;html=1;whiteSpace=wrap;fontSize=12;fontStyle=0;container=1;pointerEvents=0;collapsible=0;recursiveResize=0;shape=mxgraph.aws4.group;grIcon=mxgraph.aws4.group_region;strokeColor=#147EBA;fillColor=none;verticalAlign=top;align=left;spacingLeft=30;fontColor=#147EBA;dashed=1;" parent="jcmodlkswDEMBjQgmv_7-1" vertex="1">
          <mxGeometry x="40" y="40" width="1320" height="1060" as="geometry" />
        </mxCell>
        <mxCell id="jcmodlkswDEMBjQgmv_7-5" value="VPC" style="points=[[0,0],[0.25,0],[0.5,0],[0.75,0],[1,0],[1,0.25],[1,0.5],[1,0.75],[1,1],[0.75,1],[0.5,1],[0.25,1],[0,1],[0,0.75],[0,0.5],[0,0.25]];outlineConnect=0;gradientColor=none;html=1;whiteSpace=wrap;fontSize=12;fontStyle=0;container=1;pointerEvents=0;collapsible=0;recursiveResize=0;shape=mxgraph.aws4.group;grIcon=mxgraph.aws4.group_vpc;strokeColor=#248814;fillColor=none;verticalAlign=top;align=left;spacingLeft=30;fontColor=#AAB7B8;dashed=0;" parent="jcmodlkswDEMBjQgmv_7-4" vertex="1">
          <mxGeometry x="40" y="40" width="1000" height="850" as="geometry" />
        </mxCell>
        <mxCell id="jcmodlkswDEMBjQgmv_7-6" value="Availability Zone" style="fillColor=none;strokeColor=#147EBA;dashed=1;verticalAlign=top;fontStyle=0;fontColor=#147EBA;whiteSpace=wrap;html=1;" parent="jcmodlkswDEMBjQgmv_7-5" vertex="1">
          <mxGeometry x="40" y="200" width="440" height="420" as="geometry" />
        </mxCell>
        <mxCell id="jcmodlkswDEMBjQgmv_7-7" value="Availability Zone" style="fillColor=none;strokeColor=#147EBA;dashed=1;verticalAlign=top;fontStyle=0;fontColor=#147EBA;whiteSpace=wrap;html=1;" parent="jcmodlkswDEMBjQgmv_7-5" vertex="1">
          <mxGeometry x="520" y="200" width="440" height="420" as="geometry" />
        </mxCell>
        <mxCell id="jcmodlkswDEMBjQgmv_7-8" value="Public subnet" style="points=[[0,0],[0.25,0],[0.5,0],[0.75,0],[1,0],[1,0.25],[1,0.5],[1,0.75],[1,1],[0.75,1],[0.5,1],[0.25,1],[0,1],[0,0.75],[0,0.5],[0,0.25]];outlineConnect=0;gradientColor=none;html=1;whiteSpace=wrap;fontSize=12;fontStyle=0;container=1;pointerEvents=0;collapsible=0;recursiveResize=0;shape=mxgraph.aws4.group;grIcon=mxgraph.aws4.group_security_group;grStroke=0;strokeColor=#248814;fillColor=#E9F3E6;verticalAlign=top;align=left;spacingLeft=30;fontColor=#248814;dashed=0;" parent="jcmodlkswDEMBjQgmv_7-5" vertex="1">
          <mxGeometry x="80" y="260" width="160" height="320" as="geometry" />
        </mxCell>
        <mxCell id="jcmodlkswDEMBjQgmv_7-16" value="" style="sketch=0;outlineConnect=0;fontColor=#232F3E;gradientColor=none;fillColor=#4D27AA;strokeColor=none;dashed=0;verticalLabelPosition=bottom;verticalAlign=top;align=center;html=1;fontSize=12;fontStyle=0;aspect=fixed;pointerEvents=1;shape=mxgraph.aws4.nat_gateway;" parent="jcmodlkswDEMBjQgmv_7-8" vertex="1">
          <mxGeometry x="41" y="101" width="78" height="78" as="geometry" />
        </mxCell>
        <mxCell id="jcmodlkswDEMBjQgmv_7-9" value="Private subnet" style="points=[[0,0],[0.25,0],[0.5,0],[0.75,0],[1,0],[1,0.25],[1,0.5],[1,0.75],[1,1],[0.75,1],[0.5,1],[0.25,1],[0,1],[0,0.75],[0,0.5],[0,0.25]];outlineConnect=0;gradientColor=none;html=1;whiteSpace=wrap;fontSize=12;fontStyle=0;container=1;pointerEvents=0;collapsible=0;recursiveResize=0;shape=mxgraph.aws4.group;grIcon=mxgraph.aws4.group_security_group;grStroke=0;strokeColor=#147EBA;fillColor=#E6F2F8;verticalAlign=top;align=left;spacingLeft=30;fontColor=#147EBA;dashed=0;" parent="jcmodlkswDEMBjQgmv_7-5" vertex="1">
          <mxGeometry x="280" y="260" width="160" height="320" as="geometry" />
        </mxCell>
        <mxCell id="jcmodlkswDEMBjQgmv_7-10" value="Private subnet" style="points=[[0,0],[0.25,0],[0.5,0],[0.75,0],[1,0],[1,0.25],[1,0.5],[1,0.75],[1,1],[0.75,1],[0.5,1],[0.25,1],[0,1],[0,0.75],[0,0.5],[0,0.25]];outlineConnect=0;gradientColor=none;html=1;whiteSpace=wrap;fontSize=12;fontStyle=0;container=1;pointerEvents=0;collapsible=0;recursiveResize=0;shape=mxgraph.aws4.group;grIcon=mxgraph.aws4.group_security_group;grStroke=0;strokeColor=#147EBA;fillColor=#E6F2F8;verticalAlign=top;align=left;spacingLeft=30;fontColor=#147EBA;dashed=0;" parent="jcmodlkswDEMBjQgmv_7-5" vertex="1">
          <mxGeometry x="560" y="260" width="160" height="320" as="geometry" />
        </mxCell>
        <mxCell id="jcmodlkswDEMBjQgmv_7-11" value="Public subnet" style="points=[[0,0],[0.25,0],[0.5,0],[0.75,0],[1,0],[1,0.25],[1,0.5],[1,0.75],[1,1],[0.75,1],[0.5,1],[0.25,1],[0,1],[0,0.75],[0,0.5],[0,0.25]];outlineConnect=0;gradientColor=none;html=1;whiteSpace=wrap;fontSize=12;fontStyle=0;container=1;pointerEvents=0;collapsible=0;recursiveResize=0;shape=mxgraph.aws4.group;grIcon=mxgraph.aws4.group_security_group;grStroke=0;strokeColor=#248814;fillColor=#E9F3E6;verticalAlign=top;align=left;spacingLeft=30;fontColor=#248814;dashed=0;" parent="jcmodlkswDEMBjQgmv_7-5" vertex="1">
          <mxGeometry x="760" y="260" width="160" height="320" as="geometry" />
        </mxCell>
        <mxCell id="jcmodlkswDEMBjQgmv_7-17" value="" style="sketch=0;outlineConnect=0;fontColor=#232F3E;gradientColor=none;fillColor=#4D27AA;strokeColor=none;dashed=0;verticalLabelPosition=bottom;verticalAlign=top;align=center;html=1;fontSize=12;fontStyle=0;aspect=fixed;pointerEvents=1;shape=mxgraph.aws4.nat_gateway;" parent="jcmodlkswDEMBjQgmv_7-11" vertex="1">
          <mxGeometry x="41" y="101" width="78" height="78" as="geometry" />
        </mxCell>
        <mxCell id="jcmodlkswDEMBjQgmv_7-18" value="" style="sketch=0;points=[[0,0,0],[0.25,0,0],[0.5,0,0],[0.75,0,0],[1,0,0],[0,1,0],[0.25,1,0],[0.5,1,0],[0.75,1,0],[1,1,0],[0,0.25,0],[0,0.5,0],[0,0.75,0],[1,0.25,0],[1,0.5,0],[1,0.75,0]];outlineConnect=0;fontColor=#232F3E;gradientColor=#945DF2;gradientDirection=north;fillColor=#5A30B5;strokeColor=#ffffff;dashed=0;verticalLabelPosition=bottom;verticalAlign=top;align=center;html=1;fontSize=12;fontStyle=0;aspect=fixed;shape=mxgraph.aws4.resourceIcon;resIcon=mxgraph.aws4.elastic_load_balancing;" parent="jcmodlkswDEMBjQgmv_7-5" vertex="1">
          <mxGeometry x="460" y="750" width="78" height="78" as="geometry" />
        </mxCell>
        <mxCell id="jcmodlkswDEMBjQgmv_7-21" value="Auto Scaling group" style="points=[[0,0],[0.25,0],[0.5,0],[0.75,0],[1,0],[1,0.25],[1,0.5],[1,0.75],[1,1],[0.75,1],[0.5,1],[0.25,1],[0,1],[0,0.75],[0,0.5],[0,0.25]];outlineConnect=0;gradientColor=none;html=1;whiteSpace=wrap;fontSize=12;fontStyle=0;container=1;pointerEvents=0;collapsible=0;recursiveResize=0;shape=mxgraph.aws4.groupCenter;grIcon=mxgraph.aws4.group_auto_scaling_group;grStroke=1;strokeColor=#D86613;fillColor=none;verticalAlign=top;align=center;fontColor=#D86613;dashed=1;spacingTop=25;" parent="jcmodlkswDEMBjQgmv_7-5" vertex="1">
          <mxGeometry x="250" y="50" width="500" height="610" as="geometry" />
        </mxCell>
        <mxCell id="vySwSnlWbHV3APguqNTf-1" value="" style="sketch=0;points=[[0,0,0],[0.25,0,0],[0.5,0,0],[0.75,0,0],[1,0,0],[0,1,0],[0.25,1,0],[0.5,1,0],[0.75,1,0],[1,1,0],[0,0.25,0],[0,0.5,0],[0,0.75,0],[1,0.25,0],[1,0.5,0],[1,0.75,0]];outlineConnect=0;fontColor=#232F3E;gradientColor=#F78E04;gradientDirection=north;fillColor=#D05C17;strokeColor=#ffffff;dashed=0;verticalLabelPosition=bottom;verticalAlign=top;align=center;html=1;fontSize=12;fontStyle=0;aspect=fixed;shape=mxgraph.aws4.resourceIcon;resIcon=mxgraph.aws4.ec2;" vertex="1" parent="jcmodlkswDEMBjQgmv_7-21">
          <mxGeometry x="71" y="266" width="78" height="78" as="geometry" />
        </mxCell>
        <mxCell id="vySwSnlWbHV3APguqNTf-2" value="" style="sketch=0;points=[[0,0,0],[0.25,0,0],[0.5,0,0],[0.75,0,0],[1,0,0],[0,1,0],[0.25,1,0],[0.5,1,0],[0.75,1,0],[1,1,0],[0,0.25,0],[0,0.5,0],[0,0.75,0],[1,0.25,0],[1,0.5,0],[1,0.75,0]];outlineConnect=0;fontColor=#232F3E;gradientColor=#F78E04;gradientDirection=north;fillColor=#D05C17;strokeColor=#ffffff;dashed=0;verticalLabelPosition=bottom;verticalAlign=top;align=center;html=1;fontSize=12;fontStyle=0;aspect=fixed;shape=mxgraph.aws4.resourceIcon;resIcon=mxgraph.aws4.ec2;" vertex="1" parent="jcmodlkswDEMBjQgmv_7-21">
          <mxGeometry x="71" y="401" width="78" height="78" as="geometry" />
        </mxCell>
        <mxCell id="vySwSnlWbHV3APguqNTf-3" value="Security group" style="fillColor=none;strokeColor=#DD3522;verticalAlign=top;fontStyle=0;fontColor=#DD3522;whiteSpace=wrap;html=1;" vertex="1" parent="jcmodlkswDEMBjQgmv_7-21">
          <mxGeometry x="10" y="180" width="480" height="370" as="geometry" />
        </mxCell>
        <mxCell id="jcmodlkswDEMBjQgmv_7-22" value="" style="edgeStyle=orthogonalEdgeStyle;html=1;endArrow=none;elbow=vertical;startArrow=block;startFill=1;strokeColor=#545B64;rounded=0;entryX=0.5;entryY=0;entryDx=0;entryDy=0;entryPerimeter=0;exitX=0.727;exitY=0.905;exitDx=0;exitDy=0;exitPerimeter=0;" parent="jcmodlkswDEMBjQgmv_7-5" source="jcmodlkswDEMBjQgmv_7-6" target="jcmodlkswDEMBjQgmv_7-18" edge="1">
          <mxGeometry width="100" relative="1" as="geometry">
            <mxPoint x="370" y="580" as="sourcePoint" />
            <mxPoint x="530" y="580" as="targetPoint" />
            <Array as="points">
              <mxPoint x="360" y="700" />
              <mxPoint x="499" y="700" />
            </Array>
          </mxGeometry>
        </mxCell>
        <mxCell id="jcmodlkswDEMBjQgmv_7-23" value="" style="edgeStyle=orthogonalEdgeStyle;html=1;endArrow=block;elbow=vertical;startArrow=none;endFill=1;strokeColor=#545B64;rounded=0;entryX=0.273;entryY=0.905;entryDx=0;entryDy=0;entryPerimeter=0;" parent="jcmodlkswDEMBjQgmv_7-5" target="jcmodlkswDEMBjQgmv_7-7" edge="1">
          <mxGeometry width="100" relative="1" as="geometry">
            <mxPoint x="500" y="740" as="sourcePoint" />
            <mxPoint x="610" y="700" as="targetPoint" />
            <Array as="points">
              <mxPoint x="500" y="700" />
              <mxPoint x="640" y="700" />
            </Array>
          </mxGeometry>
        </mxCell>
        <mxCell id="jcmodlkswDEMBjQgmv_7-20" value="" style="sketch=0;points=[[0,0,0],[0.25,0,0],[0.5,0,0],[0.75,0,0],[1,0,0],[0,1,0],[0.25,1,0],[0.5,1,0],[0.75,1,0],[1,1,0],[0,0.25,0],[0,0.5,0],[0,0.75,0],[1,0.25,0],[1,0.5,0],[1,0.75,0]];outlineConnect=0;fontColor=#232F3E;gradientColor=#F78E04;gradientDirection=north;fillColor=#D05C17;strokeColor=#ffffff;dashed=0;verticalLabelPosition=bottom;verticalAlign=top;align=center;html=1;fontSize=12;fontStyle=0;aspect=fixed;shape=mxgraph.aws4.resourceIcon;resIcon=mxgraph.aws4.ec2;" parent="jcmodlkswDEMBjQgmv_7-5" vertex="1">
          <mxGeometry x="601" y="316" width="78" height="78" as="geometry" />
        </mxCell>
        <mxCell id="jcmodlkswDEMBjQgmv_7-19" value="" style="sketch=0;points=[[0,0,0],[0.25,0,0],[0.5,0,0],[0.75,0,0],[1,0,0],[0,1,0],[0.25,1,0],[0.5,1,0],[0.75,1,0],[1,1,0],[0,0.25,0],[0,0.5,0],[0,0.75,0],[1,0.25,0],[1,0.5,0],[1,0.75,0]];outlineConnect=0;fontColor=#232F3E;gradientColor=#F78E04;gradientDirection=north;fillColor=#D05C17;strokeColor=#ffffff;dashed=0;verticalLabelPosition=bottom;verticalAlign=top;align=center;html=1;fontSize=12;fontStyle=0;aspect=fixed;shape=mxgraph.aws4.resourceIcon;resIcon=mxgraph.aws4.ec2;" parent="jcmodlkswDEMBjQgmv_7-5" vertex="1">
          <mxGeometry x="601" y="451" width="78" height="78" as="geometry" />
        </mxCell>
        <mxCell id="jcmodlkswDEMBjQgmv_7-12" value="" style="sketch=0;outlineConnect=0;fontColor=#232F3E;gradientColor=none;fillColor=#4D27AA;strokeColor=none;dashed=0;verticalLabelPosition=bottom;verticalAlign=top;align=center;html=1;fontSize=12;fontStyle=0;aspect=fixed;pointerEvents=1;shape=mxgraph.aws4.internet_gateway;" parent="jcmodlkswDEMBjQgmv_7-4" vertex="1">
          <mxGeometry x="500" y="950" width="78" height="78" as="geometry" />
        </mxCell>
        <mxCell id="jcmodlkswDEMBjQgmv_7-26" value="" style="sketch=0;points=[[0,0,0],[0.25,0,0],[0.5,0,0],[0.75,0,0],[1,0,0],[0,1,0],[0.25,1,0],[0.5,1,0],[0.75,1,0],[1,1,0],[0,0.25,0],[0,0.5,0],[0,0.75,0],[1,0.25,0],[1,0.5,0],[1,0.75,0]];outlineConnect=0;fontColor=#232F3E;gradientColor=#60A337;gradientDirection=north;fillColor=#277116;strokeColor=#ffffff;dashed=0;verticalLabelPosition=bottom;verticalAlign=top;align=center;html=1;fontSize=12;fontStyle=0;aspect=fixed;shape=mxgraph.aws4.resourceIcon;resIcon=mxgraph.aws4.s3;" parent="jcmodlkswDEMBjQgmv_7-4" vertex="1">
          <mxGeometry x="1180" y="401" width="78" height="78" as="geometry" />
        </mxCell>
        <mxCell id="jcmodlkswDEMBjQgmv_7-28" value="" style="edgeStyle=orthogonalEdgeStyle;html=1;endArrow=none;elbow=vertical;startArrow=block;startFill=1;strokeColor=#545B64;rounded=0;" parent="jcmodlkswDEMBjQgmv_7-4" target="jcmodlkswDEMBjQgmv_7-27" edge="1">
          <mxGeometry width="100" relative="1" as="geometry">
            <mxPoint x="1260" y="440" as="sourcePoint" />
            <mxPoint x="1360" y="440" as="targetPoint" />
          </mxGeometry>
        </mxCell>
        <mxCell id="jcmodlkswDEMBjQgmv_7-31" value="" style="edgeStyle=orthogonalEdgeStyle;html=1;endArrow=block;elbow=vertical;startArrow=none;endFill=1;strokeColor=#545B64;rounded=0;entryX=0.5;entryY=1;entryDx=0;entryDy=0;entryPerimeter=0;" parent="jcmodlkswDEMBjQgmv_7-4" source="jcmodlkswDEMBjQgmv_7-12" target="jcmodlkswDEMBjQgmv_7-18" edge="1">
          <mxGeometry width="100" relative="1" as="geometry">
            <mxPoint x="440" y="910" as="sourcePoint" />
            <mxPoint x="540" y="910" as="targetPoint" />
          </mxGeometry>
        </mxCell>
        <mxCell id="jcmodlkswDEMBjQgmv_7-13" value="" style="sketch=0;outlineConnect=0;fontColor=#232F3E;gradientColor=none;fillColor=#232F3D;strokeColor=none;dashed=0;verticalLabelPosition=bottom;verticalAlign=top;align=center;html=1;fontSize=12;fontStyle=0;aspect=fixed;pointerEvents=1;shape=mxgraph.aws4.internet_alt2;" parent="1" vertex="1">
          <mxGeometry x="580" y="1120" width="78" height="78" as="geometry" />
        </mxCell>
        <mxCell id="jcmodlkswDEMBjQgmv_7-27" value="" style="sketch=0;outlineConnect=0;fontColor=#232F3E;gradientColor=none;fillColor=#BF0816;strokeColor=none;dashed=0;verticalLabelPosition=bottom;verticalAlign=top;align=center;html=1;fontSize=12;fontStyle=0;aspect=fixed;pointerEvents=1;shape=mxgraph.aws4.role;" parent="1" vertex="1">
          <mxGeometry x="1510" y="160" width="78" height="44" as="geometry" />
        </mxCell>
        <mxCell id="jcmodlkswDEMBjQgmv_7-30" value="" style="edgeStyle=orthogonalEdgeStyle;html=1;endArrow=block;elbow=vertical;startArrow=none;endFill=1;strokeColor=#545B64;rounded=0;exitX=0.5;exitY=0;exitDx=0;exitDy=0;" parent="1" source="jcmodlkswDEMBjQgmv_7-21" target="jcmodlkswDEMBjQgmv_7-27" edge="1">
          <mxGeometry width="100" relative="1" as="geometry">
            <mxPoint x="620" y="-200" as="sourcePoint" />
            <mxPoint x="1560" y="90" as="targetPoint" />
            <Array as="points">
              <mxPoint x="620" y="70" />
              <mxPoint x="620" y="-240" />
              <mxPoint x="1549" y="-240" />
            </Array>
          </mxGeometry>
        </mxCell>
        <mxCell id="jcmodlkswDEMBjQgmv_7-32" value="" style="edgeStyle=orthogonalEdgeStyle;html=1;endArrow=block;elbow=vertical;startArrow=none;endFill=1;strokeColor=#545B64;rounded=0;" parent="1" source="jcmodlkswDEMBjQgmv_7-13" target="jcmodlkswDEMBjQgmv_7-12" edge="1">
          <mxGeometry width="100" relative="1" as="geometry">
            <mxPoint x="520" y="1060" as="sourcePoint" />
            <mxPoint x="620" y="1060" as="targetPoint" />
          </mxGeometry>
        </mxCell>
      </root>
    </mxGraphModel>
  </diagram>
</mxfile>
